# xmcd
#
# Track frame offsets:
#	150
#	16500
#	35424
#	52095
#	64090
#	83741
#	105491
#	117778
#	142936
#	157871
#	172607
#	191441
#	206984
#	223512
#	239380
#	250475
#	266392
#	285628
#	299670
#	317826
#
# Disc length: 4504 seconds
#
# Revision: 1
# Processed by: cddbd v1.5.1PL0 Copyright (c) Steve Scherf et al.
# Submitted via: CDex 1.50Beta5
#
DISCID=18119614
DTITLE=井上　陽水 - Platinum Best Early Times
DYEAR=2003
DGENRE=Pop
TTITLE0=井上　陽水/闇夜の国から
TTITLE1=井上　陽水/東から西へ
TTITLE2=井上　陽水/つめたい部屋の世界地図
TTITLE3=井上　陽水/夢の中へ
TTITLE4=井上　陽水/帰れない二人
TTITLE5=井上　陽水/新しいラプソディー
TTITLE6=井上　陽水/愛は君
TTITLE7=井上　陽水/傘がない
TTITLE8=井上　陽水/いつのまにか少女は
TTITLE9=井上　陽水/いっそセレナーデ
TTITLE10=井上　陽水/氷の世界
TTITLE11=井上　陽水/心もよう
TTITLE12=井上　陽水/神無月にかこまれて
TTITLE13=井上　陽水/いつもと違った春
TTITLE14=井上　陽水/白い一日
TTITLE15=井上　陽水/能古鳥の片想い
TTITLE16=井上　陽水/眠りにさそわれて
TTITLE17=井上　陽水/太陽の町
TTITLE18=井上　陽水・安全地帯/俺はシャウト！
TTITLE19=井上　陽水・安全地帯/夏の終わりのハーモニー
EXTD=
EXTT0=
EXTT1=
EXTT2=
EXTT3=
EXTT4=
EXTT5=
EXTT6=
EXTT7=
EXTT8=
EXTT9=
EXTT10=
EXTT11=
EXTT12=
EXTT13=
EXTT14=
EXTT15=
EXTT16=
EXTT17=
EXTT18=
EXTT19=
PLAYORDER=
